<svg width="24" height="16" viewBox="0 0 24 16" fill="none" xmlns="http://www.w3.org/2000/svg">
<path d="M6.98106 0C7.67342 0 8.31378 0.0541755 8.89887 0.214535C9.48505 0.321803 9.96505 0.536338 10.3909 0.803965C10.8178 1.07159 11.1374 1.44757 11.3498 1.92973C11.5632 2.41189 11.6705 3.00241 11.6705 3.64493C11.6705 4.3958 11.5101 5.03832 11.1374 5.52049C10.8178 6.00373 10.2847 6.43172 9.64541 6.75352C10.5512 7.02223 11.2436 7.50439 11.6705 8.14692C12.0963 8.79052 12.3629 9.59448 12.3629 10.5057C12.3629 11.2566 12.2025 11.8991 11.936 12.4354C11.6705 12.9718 11.2436 13.4539 10.7636 13.7758C10.2422 14.1207 9.66582 14.3743 9.05923 14.5255C8.41996 14.687 7.78069 14.7943 7.14142 14.7943H0V0H6.98106ZM6.55415 6.00265C7.14033 6.00265 7.62033 5.84229 7.99306 5.57466C8.36578 5.30703 8.52614 4.82379 8.52614 4.23436C8.52614 3.91256 8.47197 3.59075 8.36578 3.3773C8.2596 3.16277 8.09924 3.00132 7.88687 2.84096C7.66964 2.71921 7.43613 2.62909 7.19343 2.57334C6.92688 2.51916 6.66142 2.51916 6.3407 2.51916H3.25053V6.00373L6.55415 6.00265ZM6.71451 12.3282C7.03415 12.3282 7.35379 12.274 7.62033 12.2209C7.88687 12.1667 8.15342 12.0606 8.36578 11.8991C8.5829 11.7423 8.76454 11.5414 8.89887 11.3097C9.00506 11.0421 9.11232 10.7203 9.11232 10.3454C9.11232 9.59449 8.89887 9.05815 8.47305 8.68325C8.04615 8.36145 7.45997 8.20109 6.76761 8.20109H3.25053V12.3293L6.71451 12.3282ZM16.9992 12.274C17.425 12.7031 18.0643 12.9176 18.917 12.9176C19.5032 12.9176 20.0363 12.7573 20.4621 12.4896C20.889 12.1678 21.1555 11.846 21.2617 11.5242H23.873C23.4461 12.8103 22.8068 13.7216 21.9552 14.311C21.1014 14.8473 20.0894 15.1691 18.8639 15.1691C18.0799 15.1716 17.3024 15.026 16.5723 14.7401C15.9153 14.4937 15.3295 14.0887 14.8668 13.5612C14.372 13.0678 14.0062 12.4601 13.8018 11.7918C13.5352 11.0951 13.4279 10.3454 13.4279 9.48722C13.4279 8.68325 13.5352 7.93346 13.8018 7.23568C14.0584 6.56392 14.4379 5.94587 14.921 5.41322C15.3999 4.93106 15.9861 4.50307 16.6254 4.23436C17.3369 3.94838 18.0971 3.80268 18.8639 3.80529C19.7697 3.80529 20.5694 3.96673 21.2617 4.34163C21.9552 4.71652 22.4872 5.14559 22.913 5.7892C23.3399 6.37863 23.6606 7.07532 23.873 7.8262C23.9792 8.57599 24.0323 9.32686 23.9792 10.1839H16.2527C16.2527 11.0421 16.5723 11.846 16.9992 12.2751M20.3559 6.64734C19.9832 6.27244 19.397 6.05791 18.7036 6.05791C18.297 6.05181 17.8949 6.1436 17.5312 6.32553C17.2116 6.48698 16.9992 6.70151 16.7857 6.91605C16.5896 7.12327 16.4598 7.38436 16.413 7.66584C16.3588 7.93455 16.3057 8.148 16.3057 8.36253H21.1014C20.9952 7.55857 20.7286 7.02331 20.3559 6.64734ZM15.6665 1.0185H21.6345V2.46607H15.6676L15.6665 1.0185Z" fill="black"/>
</svg>
