<svg width="25" height="25" viewBox="0 0 25 25" fill="none" xmlns="http://www.w3.org/2000/svg">
<path d="M23.345 14.4459L22.3442 15.4467L20.2425 13.345L21.2433 12.3442C21.4434 12.1441 21.8437 12.1441 22.0439 12.3442L23.345 13.6453C23.5451 13.8454 23.5451 14.1457 23.345 14.4459ZM13.6371 19.9503L19.7421 13.8454L21.8437 15.9471L15.7388 22.052H13.6371V19.9503ZM11.6355 19.9503V19.1497L12.236 18.5492L12.7364 18.0488H8.63312V16.0472H6.63152V8.04076H8.63312V6.03915H16.6396V8.04076H18.6412V12.1441L19.7421 11.0432L19.9422 10.843C20.1424 10.6429 20.4426 10.4427 20.7429 10.3426V8.04076H22.7445V2.03593H16.7396V4.03754H8.63312V2.03593H2.6283V8.04076H4.62991V16.0472H2.6283V22.052H8.63312V20.0504L11.6355 19.9503ZM18.6412 4.03754H20.6428V6.03915H18.6412V4.03754ZM4.62991 4.03754H6.63152V6.03915H4.62991V4.03754ZM6.63152 20.0504H4.62991V18.0488H6.63152V20.0504Z" fill="black"/>
</svg>
