<svg width="32" height="33" viewBox="0 0 32 33" fill="none" xmlns="http://www.w3.org/2000/svg">
<path d="M22.976 19.9802C23.104 18.9242 23.2 17.8682 23.2 16.7802C23.2 15.6922 23.104 14.6362 22.976 13.5802H28.384C28.64 14.6042 28.8 15.6762 28.8 16.7802C28.8 17.8842 28.64 18.9562 28.384 19.9802M20.144 28.8762C21.104 27.1002 21.84 25.1802 22.352 23.1802H27.072C25.536 25.8202 23.088 27.8682 20.144 28.8762ZM19.744 19.9802H12.256C12.096 18.9242 12 17.8682 12 16.7802C12 15.6922 12.096 14.6202 12.256 13.5802H19.744C19.888 14.6202 20 15.6922 20 16.7802C20 17.8682 19.888 18.9242 19.744 19.9802ZM16 29.5162C14.672 27.5962 13.6 25.4682 12.944 23.1802H19.056C18.4 25.4682 17.328 27.5962 16 29.5162ZM9.6 10.3802H4.928C6.448 7.72421 8.912 5.67621 11.84 4.68421C10.88 6.46021 10.16 8.38021 9.6 10.3802ZM4.928 23.1802H9.6C10.16 25.1802 10.88 27.1002 11.84 28.8762C8.912 27.8682 6.448 25.8202 4.928 23.1802ZM3.616 19.9802C3.36 18.9562 3.2 17.8842 3.2 16.7802C3.2 15.6762 3.36 14.6042 3.616 13.5802H9.024C8.896 14.6362 8.8 15.6922 8.8 16.7802C8.8 17.8682 8.896 18.9242 9.024 19.9802M16 4.02821C17.328 5.94821 18.4 8.09221 19.056 10.3802H12.944C13.6 8.09221 14.672 5.94821 16 4.02821ZM27.072 10.3802H22.352C21.84 8.38021 21.104 6.46021 20.144 4.68421C23.088 5.69221 25.536 7.72421 27.072 10.3802ZM16 0.780212C7.152 0.780212 0 7.98021 0 16.7802C0 21.0237 1.68571 25.0933 4.68629 28.0939C6.17203 29.5797 7.93586 30.7582 9.87706 31.5623C11.8183 32.3664 13.8989 32.7802 16 32.7802C20.2435 32.7802 24.3131 31.0945 27.3137 28.0939C30.3143 25.0933 32 21.0237 32 16.7802C32 14.6791 31.5861 12.5985 30.7821 10.6573C29.978 8.71607 28.7994 6.95224 27.3137 5.4665C25.828 3.98077 24.0641 2.80222 22.1229 1.99814C20.1817 1.19406 18.1012 0.780212 16 0.780212Z" fill="#8E8E8E"/>
</svg>
