<svg xmlns="http://www.w3.org/2000/svg" viewBox="0 0 356.3 105.22"><title>Asset 2</title><g id="Layer_2" data-name="Layer 2"><g id="Layer_1-2" data-name="Layer 1"><path d="M.06,62.55c0-12,.12-24-.06-36C-.06,22.43,1.52,21,5.58,21q28,.21,56,.06c4,0,5.6,1.51,5.67,5.61C67.41,38,67.54,38,56.25,38c-8.33,0-16.66.1-25,0-3.57-.06-5.13,1.25-5.09,5,.17,14.17-1.29,12,11.84,12.14,6.17.08,12.33.1,18.5,0,3.42,0,4.75,1.46,4.73,4.82-.08,14,1.08,12-11.35,12.17-5.83.06-11.67.15-17.49,0-3.85-.12-5.41,1.34-5.32,5.25.18,7.33-.1,14.66.1,22,.12,4.17-1.15,6.18-5.67,6-5.31-.27-10.66-.24-16,0-4.24.18-5.5-1.69-5.45-5.66.15-12.33.05-24.66.05-37Z"/><path d="M138.17,105.07c-20.13,0-32.43-9.69-35.5-27.87-2.22-13.17,2.89-24.7,14.6-31.27,13.63-7.64,27.86-9.22,41.71-.88,12.66,7.63,17.66,22.66,13.48,37.54-3.61,12.84-15.5,21.82-29.8,22.47C141.17,105.13,139.67,105.07,138.17,105.07ZM138.35,87A14.63,14.63,0,0,0,152.87,72.3a14.8,14.8,0,0,0-29.6.57A14.78,14.78,0,0,0,138.35,87Z"/><path d="M71,75.07c0-8.16.13-16.32-.06-24.47-.09-4,1.21-5.88,5.43-5.65s8.66.14,13,0c3.29-.08,4.91,1.1,4.9,4.62q-.12,25.47,0,50.94c0,3.5-1.58,4.73-4.87,4.65-4.49-.12-9-.14-13.49,0-3.71.12-5-1.6-4.92-5.14C71.07,91.72,71,83.39,71,75.07Z"/><path d="M82.27,38c-.33,0-.67,0-1,0-11.67-.11-11.26,1.87-11-12.47,0-3.21,1.7-4.61,4.73-4.2a92.56,92.56,0,0,0,16.39.42c.65,0,1.59-.18,1.92.18,3.41,3.65,1.3,8.14,1.64,12.25.22,2.69-1.65,3.77-4.17,3.77H82.27Z"/><path d="M234.18,64c-1.49,0-3,0-4.49,0-1.79-.07-4,.34-5-1.48-1.1-2.07.61-3.78,1.85-5.29,2.21-2.69,4.91-4.67,8.63-3.73s6.15,3.8,7.81,7.19c.87,1.79.07,3-1.83,3.12-2.31.16-4.64,0-7,0Z"/><path d="M337.73,73.45a2.8,2.8,0,0,1-.26-1q0-12.48,0-25v-.59H336V36.49l-.94,0c0-1,0-2,0-3a.55.55,0,0,1,.13-.28,2.24,2.24,0,0,0,.5-2.07,2.59,2.59,0,0,0-2-2,2.62,2.62,0,0,0-2.78,1.09,2.37,2.37,0,0,0,0,2.77,1.61,1.61,0,0,1,.32,1.09c0,.8,0,1.59,0,2.43h-1V46.9h-5.94v-.56c0-2.37,0-4.75,0-7.12,0-.71.08-1.43.12-2.14H305.19a5.63,5.63,0,0,1,.21,1c0,2.8,0,5.6,0,8.39v.48h-6.12V36.48h-.91c0-.14,0-.25,0-.35,0-.89,0-1.79,0-2.69a.57.57,0,0,1,.12-.23A2.32,2.32,0,0,0,299,31a2.62,2.62,0,0,0-2.3-1.91,2.73,2.73,0,0,0-2.57,1.32,2.46,2.46,0,0,0,.24,2.81c.06.08.15.17.15.26,0,1,0,2,0,3l-.92,0V46.92l-1.54.07v.74c0,7.89,0,15.78,0,23.67a4.64,4.64,0,0,1-.83,3c-.45.57-.25,1.2-.27,1.83h47.5a2.68,2.68,0,0,0-.4-2.13A2.33,2.33,0,0,1,337.73,73.45Z"/><path d="M348.71,0,193.22,0c-1.33,0-2.67,0-4,.1-1.69.1-3,.91-3,2.69-.07,4.14-2.8,4.21-5.84,4.2-8.67-.06-17.34.12-26-.07-4.15-.09-5.66,1.55-5.48,5.61.22,5.16.19,10.34,0,15.5-.12,3.68,1.46,5.08,5,5,7.33-.11,14.66.09,22-.05,3.61-.07,5.13,1.27,5.05,5-.17,7.16-.06,14.33,0,21.49,0,6.69.15,6.41,7.73,6.85,5.69.32,4.66-3.24,4.66-6.44,0-14.83.12-29.66,0-44.5,0-3.91,1.38-5.29,5.26-5.22,9.83.17,19.66.13,29.49,0,3.56-.05,5.26,1.15,5.1,4.9-.18,4.33-.17,8.67,0,13,.14,3.73-1.52,5-5.1,4.92-6.16-.15-12.33-.06-18.49,0-1.81,0-4.09-.14-4.32,2.32-.4,4.18-.83,8.43.46,13,3.38-2.09,5.37-5.12,8.52-6.75,14.31-7.41,28.47-7.48,42.28,1,3.23,2,4.29,1.54,4.7-2a58.07,58.07,0,0,1,4.7-16.27C272.42,8.89,284.19,1,300.67,1c5.66,0,11.33,0,17,0,2.66,0,5.33,0,8,0,2.37,0,4.29.85,5.08,3.25a4.43,4.43,0,0,1-1.07,5.06c-1.87,1.7-3.9,1.56-6,.42-1.76-1-3.52-1.91-5.32-2.77a31.79,31.79,0,0,0-43.66,17.57,53.44,53.44,0,0,0-1.09,36.24c7.39,23.1,28.29,39.59,56,32.5a114,114,0,0,0,18.26-6.71c1.12-.5,2.57-1.68,3.57-.16a3.75,3.75,0,0,1-.48,4.64,10.94,10.94,0,0,1-2.42,1.73,72.72,72.72,0,0,1-15.87,7.27c-11.39,3.85-23,5.48-34.89,2.22-14.25-3.92-24-13.21-30.64-26.09-1.33-2.57-2.77-4.29-6-4.25-10.83.13-21.66,0-32.49.08-4.11,0-5.24,1.92-3.92,5.85,1.73,5.15,8,7.57,14.38,4.13,5.72-3.1,11.45-3,17.41-2.93,1.89,0,4.32-.66,5.26,1.75s-1.06,3.92-2.4,5.61c-11.06,14-42.22,13.93-53.92-2.11-.22,2.27-.43,3.54-.46,4.81-.19,9.27-.18,9.27-9.52,10a14.61,14.61,0,0,0-2,.21,2.84,2.84,0,0,0,.07,5.57,29.32,29.32,0,0,0,4,.22q76,0,152,0c6.56,0,6.8-.24,6.81-6.71q0-45.49,0-91C356.3.06,356.28,0,348.71,0ZM339.1,55.89v.58h1a8.56,8.56,0,0,1,0,1.44c0,.22-.32.44-.53.58a1.13,1.13,0,0,0-.51,1.08c0,1.61,0,3.22,0,4.83v.54h1a9.06,9.06,0,0,1,0,1.48c0,.21-.35.4-.56.56a1.12,1.12,0,0,0-.48,1c0,1.5,0,3,0,4.51a.81.81,0,0,0,.38.81,1.39,1.39,0,0,1,.7,1.44c-.06,1,0,2.06,0,3.12H289.32V76.52c0-.71.06-1.43,0-2.14a.79.79,0,0,1,.39-.79,1.46,1.46,0,0,0,.72-1.48c-.06-1.37,0-2.74,0-4.1a.78.78,0,0,0-.34-.79c-.93-.48-.79-1.31-.73-2.17h1c0-.15,0-.27,0-.39,0-1.75,0-3.5,0-5.24a.78.78,0,0,0-.24-.58c-.92-.52-.92-1.33-.79-2.25l1-.05V56c0-2.46,0-4.92,0-7.38,0-.9-.49-1.26-1.1-1.64l-.11-.07V45.34l1.53-.07c.38,0,.76,0,1.2,0V34.85l.94,0a5.15,5.15,0,0,0-.19-1,4.71,4.71,0,0,1-.44-3.23,4.34,4.34,0,0,1,2.94-3.09c.55-.18.58-.23.33-.75a1,1,0,0,1,.06-1,1.93,1.93,0,0,0,.27-.7c.09-.78.14-1.57.2-2.36,0-.23,0-.52.33-.47a.65.65,0,0,1,.37.46c.1.72.12,1.45.22,2.18a3,3,0,0,0,.3.91,1,1,0,0,1,0,1c-.25.47-.23.52.28.68a4.27,4.27,0,0,1,3.1,4.27,10.89,10.89,0,0,1-.54,2.05c-.08.3-.14.6-.22.95l1,.05v10.4h2.84v-.46c0-2.13,0-4.25,0-6.38a.8.8,0,0,0-.36-.78c-.63-.39-.48-1-.46-1.59,0-.09.16-.22.27-.27a1.44,1.44,0,0,0,.87-.87c.08-.25.26-.3.51-.33a1.4,1.4,0,0,1,1.45.62.79.79,0,0,0,.75.31c1.19,0,2.37,0,3.56,0a1.14,1.14,0,0,0,1-.41,1.31,1.31,0,0,1,2.06,0,.94.94,0,0,0,.9.39,2,2,0,0,1,.54,0,1.53,1.53,0,0,0,1.54-.62,1.33,1.33,0,0,1,1.67,0,1.44,1.44,0,0,0,1.37.59c1.11,0,2.22,0,3.33,0a1.11,1.11,0,0,0,1-.43,1.05,1.05,0,0,1,.85-.51,1.06,1.06,0,0,1,1.2.68c.09.22.42.37.67.5a.61.61,0,0,1,.35.56,1.4,1.4,0,0,1-.6,1.41.78.78,0,0,0-.29.57c0,2.25,0,4.5,0,6.75,0,.07,0,.14,0,.24h2.64V34.88l1,0a4.7,4.7,0,0,0-.22-1.07,4.31,4.31,0,0,1,.38-4.72A4,4,0,0,1,332,27.52c.37-.1.42-.32.26-.6a1.22,1.22,0,0,1,.08-1.27,4.6,4.6,0,0,0,.26-1.45c0-.46.06-.91.11-1.37a.55.55,0,0,1,.11-.33,1.44,1.44,0,0,1,.37-.26c.08.12.22.24.24.38.1.89.16,1.78.25,2.67a.9.9,0,0,0,.18.45.93.93,0,0,1,.09,1.14c-.23.4-.19.49.25.62a4.28,4.28,0,0,1,3.18,4,9.61,9.61,0,0,1-.5,2.24c-.08.34-.16.69-.26,1.09l1.05,0V45.22h2.51c0,.52,0,1,0,1.48,0,.08-.1.17-.18.22a1.88,1.88,0,0,0-.91,1.86C339.15,51.15,339.1,53.52,339.1,55.89Z"/></g></g></svg>