<svg width="143" height="45" viewBox="0 0 143 45" fill="none" xmlns="http://www.w3.org/2000/svg">
<path d="M112.482 40.9323V22.6198C112.482 20.3767 112.003 18.6987 111.044 17.5857C110.085 16.4557 108.596 15.8906 106.575 15.8906C103.921 15.8906 101.961 16.6526 100.694 18.1765C99.4265 19.7004 98.793 22.0461 98.793 25.2138V40.9323H94.5294V22.6198C94.5294 20.3767 94.05 18.6987 93.0912 17.5857C92.1323 16.4557 90.6341 15.8906 88.5965 15.8906C85.9254 15.8906 83.9649 16.6954 82.7149 18.3049C81.4821 19.8973 80.8657 22.517 80.8657 26.1641V40.9323H76.6022V12.7829H80.0695L80.7629 16.6354H80.9684C81.7732 15.2656 82.9033 14.1955 84.3587 13.425C85.8312 12.6545 87.475 12.2692 89.29 12.2692C93.6904 12.2692 96.567 13.8616 97.9197 17.0464H98.1252C98.9642 15.5739 100.18 14.4095 101.772 13.5534C103.365 12.6973 105.18 12.2692 107.217 12.2692C110.402 12.2692 112.782 13.0911 114.357 14.7348C115.95 16.3615 116.746 18.9727 116.746 22.5684V40.9323H112.482Z" fill="white"/>
<path d="M139.254 40.9323L138.407 36.9256H138.201C136.797 38.6892 135.393 39.8878 133.989 40.5213C132.602 41.1378 130.864 41.446 128.775 41.446C125.984 41.446 123.793 40.7268 122.2 39.2885C120.625 37.8502 119.837 35.8041 119.837 33.1501C119.837 27.4654 124.383 24.4861 133.475 24.2121L138.253 24.058V22.3115C138.253 20.1027 137.773 18.4761 136.814 17.4316C135.873 16.37 134.357 15.8392 132.268 15.8392C129.922 15.8392 127.269 16.5584 124.306 17.9967L122.996 14.7348C124.383 13.9814 125.899 13.3907 127.542 12.9626C129.203 12.5346 130.864 12.3206 132.525 12.3206C135.881 12.3206 138.364 13.0654 139.973 14.555C141.6 16.0447 142.413 18.4333 142.413 21.7208V40.9323H139.254ZM129.623 37.9273C132.277 37.9273 134.357 37.1996 135.864 35.7441C137.388 34.2887 138.15 32.2512 138.15 29.6314V27.0887L133.886 27.2685C130.496 27.3884 128.048 27.9192 126.541 28.8609C125.051 29.7855 124.306 31.2324 124.306 33.2015C124.306 34.7425 124.769 35.9154 125.693 36.7201C126.635 37.5249 127.945 37.9273 129.623 37.9273Z" fill="white"/>
<path d="M16.7491 16.0961H9.58327V40.9323H5.31976V16.0961H0.285767V14.1698L5.31976 12.6287V11.062C5.31976 4.14454 8.3419 0.685791 14.3862 0.685791C15.8758 0.685791 17.6223 0.985439 19.6256 1.58473L18.5212 5.00067C16.8775 4.46987 15.4734 4.20447 14.3091 4.20447C12.6996 4.20447 11.5095 4.74382 10.739 5.82253C9.96852 6.88413 9.58327 8.5964 9.58327 10.9593V12.7829H16.7491V16.0961Z" fill="white"/>
<path d="M42.5963 26.8319C42.5963 31.4207 41.4406 35.0079 39.1291 37.5934C36.8175 40.1618 33.6241 41.446 29.549 41.446C27.032 41.446 24.7975 40.8552 22.8455 39.6738C20.8936 38.4923 19.3868 36.7972 18.3252 34.5884C17.2636 32.3796 16.7328 29.7941 16.7328 26.8319C16.7328 22.2431 17.88 18.673 20.1744 16.1218C22.4689 13.5534 25.6536 12.2692 29.7288 12.2692C33.667 12.2692 36.7918 13.5791 39.1033 16.1988C41.432 18.8185 42.5963 22.3629 42.5963 26.8319ZM21.1504 26.8319C21.1504 30.4276 21.8695 33.1672 23.3078 35.0507C24.7461 36.9342 26.8608 37.8759 29.6517 37.8759C32.4427 37.8759 34.5573 36.9427 35.9956 35.0764C37.451 33.1929 38.1788 30.4447 38.1788 26.8319C38.1788 23.2533 37.451 20.5394 35.9956 18.6901C34.5573 16.8238 32.4256 15.8906 29.6004 15.8906C26.8094 15.8906 24.7033 16.8067 23.2822 18.6388C21.861 20.4709 21.1504 23.2019 21.1504 26.8319Z" fill="white"/>
<path d="M59.3257 12.2692C60.5756 12.2692 61.6971 12.3719 62.6903 12.5774L62.0995 16.5327C60.9352 16.2759 59.9078 16.1474 59.0175 16.1474C56.7402 16.1474 54.7882 17.0721 53.1616 18.9213C51.552 20.7705 50.7473 23.0735 50.7473 25.8302V40.9323H46.4838V12.7829H50.0025L50.4904 17.9967H50.6959C51.7404 16.1646 52.9988 14.752 54.4714 13.7589C55.9439 12.7657 57.562 12.2692 59.3257 12.2692Z" fill="white"/>
<path d="M74.908 7.13614L60.9104 44.6858H58.2393L72.2112 7.13614H74.908Z" fill="white" fill-opacity="0.5"/>
</svg>
