<svg width="104" height="33" viewBox="0 0 104 33" fill="none" xmlns="http://www.w3.org/2000/svg">
<path d="M82.169 30.0504V16.7322C82.169 15.1009 81.8203 13.8805 81.1229 13.0711C80.4256 12.2492 79.3422 11.8383 77.8728 11.8383C75.9426 11.8383 74.5168 12.3924 73.5953 13.5007C72.6738 14.609 72.213 16.315 72.213 18.6188V30.0504H69.1123V16.7322C69.1123 15.1009 68.7636 13.8805 68.0663 13.0711C67.3689 12.2492 66.2793 11.8383 64.7974 11.8383C62.8548 11.8383 61.4289 12.4235 60.5199 13.5941C59.6233 14.7522 59.175 16.6575 59.175 19.3099V30.0504H56.0743V9.57808H58.596L59.1003 12.3799H59.2497C59.835 11.3837 60.6569 10.6054 61.7154 10.0451C62.7863 9.48468 63.9818 9.20449 65.3018 9.20449C68.5021 9.20449 70.5942 10.3626 71.5779 12.6788H71.7274C72.3376 11.6079 73.2217 10.7611 74.3798 10.1385C75.5379 9.51582 76.8579 9.20449 78.3398 9.20449C80.656 9.20449 82.3869 9.80223 83.5326 10.9977C84.6907 12.1807 85.2697 14.0797 85.2697 16.6948V30.0504H82.169Z" fill="white"/>
<path d="M101.639 30.0504L101.023 27.1364H100.874C99.8525 28.4191 98.8314 29.2908 97.8102 29.7515C96.8016 30.1998 95.5376 30.4239 94.0184 30.4239C91.9886 30.4239 90.3946 29.9009 89.2365 28.8549C88.0909 27.8089 87.518 26.3208 87.518 24.3906C87.518 20.2563 90.8242 18.0895 97.4366 17.8903L100.911 17.7782V16.508C100.911 14.9016 100.562 13.7186 99.8649 12.959C99.18 12.1869 98.0779 11.8009 96.5587 11.8009C94.8527 11.8009 92.9225 12.3239 90.7682 13.3699L89.8156 10.9977C90.8242 10.4498 91.9263 10.0201 93.1218 9.70881C94.3297 9.39749 95.5376 9.24184 96.7455 9.24184C99.1862 9.24184 100.992 9.78353 102.162 10.8669C103.345 11.9503 103.937 13.6875 103.937 16.0784V30.0504H101.639ZM94.6348 27.8649C96.565 27.8649 98.078 27.3357 99.1738 26.2772C100.282 25.2187 100.836 23.7368 100.836 21.8316V19.9823L97.7355 20.1131C95.2699 20.2002 93.4891 20.5863 92.3933 21.2712C91.3099 21.9436 90.7682 22.9959 90.7682 24.428C90.7682 25.5487 91.1044 26.4017 91.7769 26.987C92.4618 27.5723 93.4144 27.8649 94.6348 27.8649Z" fill="white"/>
<path d="M12.5447 11.9877H7.33323V30.0504H4.2325V11.9877H0.571411V10.5867L4.2325 9.46599V8.32657C4.2325 3.29566 6.43042 0.780212 10.8262 0.780212C11.9096 0.780212 13.1798 0.998138 14.6368 1.43398L13.8336 3.9183C12.6381 3.53227 11.617 3.33925 10.7702 3.33925C9.59963 3.33925 8.73416 3.7315 8.17378 4.51603C7.61341 5.28809 7.33323 6.53338 7.33323 8.25186V9.57808H12.5447V11.9877Z" fill="white"/>
<path d="M31.3427 19.7955C31.3427 23.1329 30.5021 25.7417 28.821 27.6221C27.1399 29.49 24.8175 30.424 21.8537 30.424C20.0232 30.424 18.3981 29.9943 16.9785 29.1351C15.5588 28.2759 14.463 27.043 13.6909 25.4366C12.9189 23.8302 12.5328 21.9499 12.5328 19.7955C12.5328 16.4582 13.3672 13.8618 15.0359 12.0064C16.7045 10.1384 19.0207 9.20449 21.9845 9.20449C24.8486 9.20449 27.1212 10.1571 28.8023 12.0624C30.4959 13.9677 31.3427 16.5454 31.3427 19.7955ZM15.7456 19.7955C15.7456 22.4106 16.2686 24.4031 17.3147 25.7729C18.3607 27.1427 19.8986 27.8276 21.9284 27.8276C23.9582 27.8276 25.4961 27.1489 26.5422 25.7915C27.6006 24.4217 28.1299 22.4231 28.1299 19.7955C28.1299 17.1929 27.6006 15.2192 26.5422 13.8743C25.4961 12.5169 23.9458 11.8382 21.8911 11.8382C19.8613 11.8382 18.3296 12.5045 17.296 13.8369C16.2624 15.1694 15.7456 17.1556 15.7456 19.7955Z" fill="white"/>
<path d="M43.5095 9.20449C44.4186 9.20449 45.2342 9.2792 45.9565 9.42863L45.5269 12.3052C44.6801 12.1184 43.9329 12.025 43.2854 12.025C41.6292 12.025 40.2096 12.6975 39.0266 14.0424C37.856 15.3873 37.2707 17.0622 37.2707 19.0671V30.0504H34.17V9.57808H36.729L37.0839 13.3699H37.2333C37.993 12.0375 38.9082 11.0101 39.9791 10.2879C41.0501 9.56562 42.2269 9.20449 43.5095 9.20449Z" fill="white"/>
<path d="M54.8422 5.47137L44.6621 32.7802H42.7194L52.8809 5.47137H54.8422Z" fill="white" fill-opacity="0.5"/>
</svg>
