<svg width="224" height="56" viewBox="0 0 224 56" fill="none" xmlns="http://www.w3.org/2000/svg">
<g opacity="0.72">
<path d="M164.796 51.2228V27.9159C164.796 25.0611 164.185 22.9255 162.965 21.509C161.745 20.0707 159.849 19.3516 157.277 19.3516C153.899 19.3516 151.404 20.3213 149.792 22.2608C148.179 24.2003 147.373 27.1859 147.373 31.2175V51.2228H141.946V27.9159C141.946 25.0611 141.336 22.9255 140.116 21.509C138.895 20.0707 136.989 19.3516 134.395 19.3516C130.996 19.3516 128.501 20.3758 126.91 22.4243C125.341 24.451 124.556 27.7852 124.556 32.4269V51.2228H119.13V15.3963H123.543L124.425 20.2995H124.687C125.711 18.5561 127.149 17.1941 129.002 16.2135C130.876 15.2328 132.968 14.7425 135.278 14.7425C140.879 14.7425 144.54 16.7692 146.261 20.8226H146.523C147.591 18.9484 149.138 17.4665 151.165 16.3769C153.191 15.2873 155.501 14.7425 158.095 14.7425C162.148 14.7425 165.177 15.7885 167.182 17.8806C169.209 19.9509 170.222 23.2742 170.222 27.8506V51.2228H164.796Z" fill="white"/>
<path d="M198.869 51.2228L197.79 46.1234H197.528C195.741 48.368 193.955 49.8934 192.168 50.6998C190.402 51.4843 188.19 51.8765 185.532 51.8765C181.98 51.8765 179.19 50.9613 177.164 49.1307C175.159 47.3002 174.156 44.696 174.156 41.3182C174.156 34.0832 179.942 30.2913 191.514 29.9426L197.594 29.7465V27.5236C197.594 24.7124 196.984 22.6422 195.763 21.3128C194.565 19.9617 192.636 19.2862 189.977 19.2862C186.992 19.2862 183.614 20.2014 179.844 22.032L178.177 17.8806C179.942 16.9217 181.871 16.1699 183.963 15.6251C186.077 15.0802 188.19 14.8079 190.304 14.8079C194.576 14.8079 197.736 15.7558 199.784 17.6517C201.854 19.5477 202.889 22.5877 202.889 26.7718V51.2228H198.869ZM186.611 47.3982C189.988 47.3982 192.636 46.472 194.554 44.6197C196.493 42.7674 197.463 40.1741 197.463 36.8399V33.6037L192.037 33.8325C187.722 33.9851 184.606 34.6606 182.688 35.8592C180.792 37.036 179.844 38.8774 179.844 41.3836C179.844 43.3449 180.432 44.8376 181.609 45.8619C182.808 46.8861 184.475 47.3982 186.611 47.3982Z" fill="white"/>
<path d="M42.9533 19.6131H33.8332V51.2228H28.4069V19.6131H22V17.1614L28.4069 15.2001V13.2061C28.4069 4.40204 32.2533 0 39.946 0C41.8419 0 44.0647 0.38137 46.6144 1.1441L45.2088 5.49166C43.1167 4.8161 41.3297 4.47832 39.8478 4.47832C37.7994 4.47832 36.2848 5.16476 35.3041 6.53767C34.3235 7.88879 33.8332 10.068 33.8332 13.0754V15.3963H42.9533V19.6131Z" fill="white"/>
<path d="M75.8498 33.2768C75.8498 39.1172 74.3789 43.6826 71.437 46.9733C68.495 50.2421 64.4307 51.8766 59.2441 51.8766C56.0407 51.8766 53.1968 51.1247 50.7125 49.621C48.2281 48.1174 46.3104 45.9599 44.9593 43.1487C43.6082 40.3375 42.9326 37.0469 42.9326 33.2768C42.9326 27.4365 44.3927 22.8928 47.3129 19.6458C50.2331 16.3769 54.2864 14.7425 59.473 14.7425C64.4852 14.7425 68.4623 16.4096 71.4042 19.7438C74.368 23.078 75.8498 27.589 75.8498 33.2768ZM48.555 33.2768C48.555 37.8532 49.4703 41.34 51.3008 43.7371C53.1314 46.1343 55.8228 47.3329 59.3749 47.3329C62.927 47.3329 65.6184 46.1452 67.4489 43.7698C69.3013 41.3727 70.2275 37.875 70.2275 33.2768C70.2275 28.7222 69.3013 25.2682 67.4489 22.9146C65.6184 20.5392 62.9053 19.3515 59.3095 19.3515C55.7574 19.3515 53.0769 20.5174 51.2682 22.8492C49.4594 25.181 48.555 28.6569 48.555 33.2768Z" fill="white"/>
<path d="M97.1416 14.7425C98.7324 14.7425 100.16 14.8732 101.424 15.1347L100.672 20.1688C99.1901 19.8419 97.8826 19.6784 96.7493 19.6784C93.851 19.6784 91.3666 20.8552 89.2964 23.2088C87.2479 25.5624 86.2237 28.4934 86.2237 32.002V51.2228H80.7974V15.3963H85.2757L85.8968 22.032H86.1582C87.4876 19.7002 89.0893 17.9024 90.9634 16.6384C92.8376 15.3745 94.897 14.7425 97.1416 14.7425Z" fill="white"/>
<path d="M116.974 8.20953L99.1584 56H95.7588L113.541 8.20953H116.974Z" fill="white" fill-opacity="0.5"/>
</g>
</svg>
