<svg width="114" height="114" viewBox="0 0 114 114" fill="none" xmlns="http://www.w3.org/2000/svg">
<rect width="113.846" height="113.846" transform="matrix(-1 0 0 -1 113.846 113.846)" fill="url(#paint0_linear_797_208)"/>
<path d="M65.2135 60.3428L53.5037 48.6329L65.2135 36.9231L76.9233 48.6329L65.2135 60.3428ZM36.9233 56.1977V39.6174H53.5037V56.1977H36.9233ZM57.6487 76.9231V60.3428H74.229V76.9231H57.6487ZM36.9233 76.9231V60.3428H53.5037V76.9231H36.9233ZM41.0684 52.0526H49.3586V43.7625H41.0684V52.0526ZM65.2653 54.5397L71.1202 48.6848L65.2653 42.8298L59.4104 48.6848L65.2653 54.5397ZM61.7938 72.778H70.084V64.4879H61.7938V72.778ZM41.0684 72.778H49.3586V64.4879H41.0684V72.778Z" fill="white"/>
<defs>
<linearGradient id="paint0_linear_797_208" x1="113.846" y1="113.846" x2="-3.39288e-06" y2="3.39288e-06" gradientUnits="userSpaceOnUse">
<stop stop-color="#3F3F3F"/>
<stop offset="1"/>
</linearGradient>
</defs>
</svg>
