<svg width="114" height="114" viewBox="0 0 114 114" fill="none" xmlns="http://www.w3.org/2000/svg">
<rect width="113.846" height="113.846" transform="matrix(-1 0 0 1 114 0)" fill="url(#paint0_linear_797_196)"/>
<path d="M49.5216 64.9231L41.5216 56.9231L49.5216 48.9231L52.6327 52.0897L47.7994 56.9231L52.6327 61.7564L49.5216 64.9231ZM64.6327 64.9231L61.5216 61.7564L66.3549 56.9231L61.5216 52.0897L64.6327 48.9231L72.6327 56.9231L64.6327 64.9231ZM41.5216 76.9231C40.2994 76.9231 39.2531 76.4879 38.3827 75.6175C37.5123 74.7472 37.0771 73.7009 37.0771 72.4786V63.5897H41.5216V72.4786H50.4105V76.9231H41.5216ZM63.7438 76.9231V72.4786H72.6327V63.5897H77.0771V72.4786C77.0771 73.7009 76.642 74.7472 75.7716 75.6175C74.9012 76.4879 73.8549 76.9231 72.6327 76.9231H63.7438ZM37.0771 50.2564V41.3675C37.0771 40.1453 37.5123 39.099 38.3827 38.2286C39.2531 37.3583 40.2994 36.9231 41.5216 36.9231H50.4105V41.3675H41.5216V50.2564H37.0771ZM72.6327 50.2564V41.3675H63.7438V36.9231H72.6327C73.8549 36.9231 74.9012 37.3583 75.7716 38.2286C76.642 39.099 77.0771 40.1453 77.0771 41.3675V50.2564H72.6327Z" fill="white"/>
<defs>
<linearGradient id="paint0_linear_797_196" x1="113.846" y1="113.846" x2="-3.39288e-06" y2="3.39288e-06" gradientUnits="userSpaceOnUse">
<stop stop-color="#3F3F3F"/>
<stop offset="1"/>
</linearGradient>
</defs>
</svg>
