<svg width="116" height="114" viewBox="0 0 116 114" fill="none" xmlns="http://www.w3.org/2000/svg">
<rect width="115.546" height="113.846" fill="url(#paint0_linear_797_193)"/>
<path d="M78.3229 61.7231L76.3229 63.7231L72.1229 59.5231L74.1229 57.5231C74.5229 57.1231 75.3228 57.1231 75.7229 57.5231L78.3229 60.1231C78.7229 60.5231 78.7229 61.1231 78.3229 61.7231ZM58.9229 72.7231L71.1229 60.5231L75.3229 64.7231L63.1229 76.9231H58.9229V72.7231ZM54.9229 72.7231V71.1231L56.1229 69.9231L57.1229 68.9231H48.9229V64.9231H44.9229V48.9231H48.9229V44.9231H64.9229V48.9231H68.9229V57.1231L71.1229 54.9231L71.5229 54.5231C71.9229 54.1231 72.5229 53.7231 73.1229 53.5231V48.9231H77.1229V36.9231H65.1229V40.9231H48.9229V36.9231H36.9229V48.9231H40.9229V64.9231H36.9229V76.9231H48.9229V72.9231L54.9229 72.7231ZM68.9229 40.9231H72.9229V44.9231H68.9229V40.9231ZM40.9229 40.9231H44.9229V44.9231H40.9229V40.9231ZM44.9229 72.9231H40.9229V68.9231H44.9229V72.9231Z" fill="white"/>
<defs>
<linearGradient id="paint0_linear_797_193" x1="115.546" y1="113.846" x2="1.7125" y2="-1.6873" gradientUnits="userSpaceOnUse">
<stop stop-color="#3F3F3F"/>
<stop offset="1"/>
</linearGradient>
</defs>
</svg>
