<svg width="27" height="26" viewBox="0 0 27 26" fill="none" xmlns="http://www.w3.org/2000/svg">
<path d="M17.1936 0.0483398C19.5891 0.0483398 21.8865 0.99995 23.5804 2.69383C25.2743 4.3877 26.2259 6.68509 26.2259 9.0806C26.2259 12.5774 24.2388 15.5967 21.3485 17.1064C20.4839 18.758 19.1291 20.1129 17.4775 20.9774C15.9678 23.8677 12.9485 25.8548 9.45169 25.8548C7.05619 25.8548 4.7588 24.9032 3.06492 23.2093C1.37104 21.5154 0.419434 19.218 0.419434 16.8225C0.419434 13.3258 2.40653 10.3064 5.29685 8.79673C6.16137 7.14511 7.51621 5.79028 9.16782 4.92576C10.6775 2.03544 13.6969 0.0483398 17.1936 0.0483398ZM13.3227 21.9838C10.9272 21.9838 8.62977 21.0322 6.93589 19.3383C5.24201 17.6445 4.2904 15.3471 4.2904 12.9516C3.4775 14.0354 3.00008 15.3645 3.00008 16.8225C3.00008 18.5336 3.6798 20.1746 4.88971 21.3845C6.09962 22.5944 7.74062 23.2741 9.45169 23.2741C10.9098 23.2741 12.2388 22.7967 13.3227 21.9838ZM17.1936 18.1129C14.7981 18.1129 12.5007 17.1612 10.8069 15.4674C9.11298 13.7735 8.16137 11.4761 8.16137 9.0806C7.34847 10.1645 6.87105 11.4935 6.87105 12.9516C6.87105 14.6626 7.55077 16.3036 8.76068 17.5135C9.97059 18.7235 11.6116 19.4032 13.3227 19.4032C14.7807 19.4032 16.1098 18.9258 17.1936 18.1129ZM17.1936 2.62898C15.7356 2.62898 14.4065 3.1064 13.3227 3.91931C15.7182 3.91931 18.0156 4.87092 19.7094 6.56479C21.4033 8.25867 22.3549 10.5561 22.3549 12.9516C23.1678 11.8677 23.6452 10.5387 23.6452 9.0806C23.6452 7.36952 22.9655 5.72853 21.7556 4.51862C20.5457 3.30871 18.9047 2.62898 17.1936 2.62898ZM10.742 9.0806C10.742 10.7917 11.4217 12.4327 12.6316 13.6426C13.8416 14.8525 15.4826 15.5322 17.1936 15.5322C17.9678 15.5322 18.7033 15.4032 19.3872 15.1451C19.6452 14.4612 19.7743 13.7258 19.7743 12.9516C19.7743 11.2405 19.0946 9.5995 17.8846 8.38959C16.6747 7.17967 15.0337 6.49995 13.3227 6.49995C12.5485 6.49995 11.813 6.62898 11.1291 6.88705C10.871 7.57092 10.742 8.3064 10.742 9.0806Z" fill="#81868A"/>
</svg>
