<svg width="186" height="41" viewBox="0 0 186 41" fill="none" xmlns="http://www.w3.org/2000/svg">
<path d="M175.706 37.4853V33.8989C175.706 33.7027 175.655 33.51 175.555 33.3402C175.457 33.1705 175.317 33.0295 175.146 32.9313L172.038 31.1382C171.868 31.0398 171.675 30.988 171.478 30.988C171.281 30.988 171.088 31.0398 170.918 31.1382L167.813 32.9313C167.643 33.0295 167.502 33.1705 167.404 33.3402C167.306 33.51 167.253 33.7027 167.253 33.8989V37.4853C167.253 37.6821 167.305 37.8756 167.403 38.046C167.501 38.2166 167.643 38.3582 167.813 38.4566L170.918 40.2498C171.088 40.3481 171.281 40.3999 171.478 40.3999C171.675 40.3999 171.868 40.3481 172.038 40.2498L175.146 38.4566C175.317 38.3582 175.458 38.2166 175.556 38.046C175.655 37.8756 175.706 37.6821 175.706 37.4853Z" fill="#7E7E7E"/>
<path d="M185.185 37.4853V33.8989C185.184 33.7027 185.132 33.51 185.034 33.3402C184.935 33.1705 184.794 33.0295 184.624 32.9313L181.519 31.1382C181.349 31.0398 181.156 30.988 180.959 30.988C180.763 30.988 180.569 31.0398 180.399 31.1382L177.294 32.9313C177.125 33.0295 176.983 33.1705 176.885 33.3402C176.787 33.51 176.735 33.7027 176.734 33.8989V37.4853C176.734 37.6821 176.786 37.8756 176.884 38.046C176.982 38.2166 177.124 38.3582 177.294 38.4566L180.399 40.2498C180.569 40.3481 180.763 40.3999 180.959 40.3999C181.156 40.3999 181.349 40.3481 181.519 40.2498L184.624 38.4566C184.794 38.3582 184.936 38.2166 185.035 38.046C185.133 37.8756 185.185 37.6821 185.185 37.4853Z" fill="#7E7E7E"/>
<path d="M180.44 29.2366V25.6503C180.44 25.4534 180.389 25.26 180.29 25.0895C180.192 24.919 180.05 24.7774 179.88 24.679L176.771 22.8857C176.601 22.7874 176.407 22.7356 176.211 22.7356C176.014 22.7356 175.821 22.7874 175.651 22.8857L172.557 24.6827C172.387 24.7811 172.245 24.9227 172.147 25.0932C172.049 25.2637 171.997 25.4571 171.997 25.654V29.2403C172.008 29.4347 172.065 29.6237 172.162 29.7923C172.259 29.9609 172.395 30.1045 172.557 30.2117L175.662 32.0049C175.832 32.1033 176.026 32.155 176.222 32.155C176.419 32.155 176.612 32.1033 176.782 32.0049L179.891 30.2117C180.06 30.1115 180.199 29.9688 180.296 29.7976C180.392 29.6264 180.442 29.433 180.44 29.2366Z" fill="#7E7E7E"/>
<path d="M77.4659 18.6157C77.4678 19.0252 77.6218 19.4194 77.8979 19.7218C78.174 20.0241 78.5526 20.2131 78.9603 20.252C84.9376 20.7899 87.9972 23.6703 87.9972 28.1308C87.9972 40.6644 73.024 40.1527 73.024 40.1527H53.0786V0.467149H72.3628C72.3628 0.467149 85.6325 -0.280013 85.9761 11.0171C86.0882 15.4403 83.5366 18.6157 77.4659 18.6157ZM73.2706 34.4967C73.2706 34.4967 81.777 35.0085 81.777 28.2578C81.777 22.2469 73.6666 22.4748 73.6666 22.4748H58.7496L58.8056 34.4967H73.2706ZM71.2272 16.3481C71.2272 16.3481 79.7373 16.576 79.7373 11.1179C79.7373 6.41082 71.5186 6.57893 71.5186 6.57893H58.8168V16.3481H71.2272Z" fill="black"/>
<path d="M49.2682 20.6629C49.3644 20.6632 49.4595 20.6436 49.5478 20.6055C49.6361 20.5674 49.7155 20.5117 49.7815 20.4416C49.8473 20.3716 49.898 20.2888 49.9305 20.1983C49.9631 20.1079 49.9768 20.0117 49.9706 19.9158C49.6867 16.307 47.4452 1.18441 29.5955 1.18441C10.9911 1.18441 10.7185 15.1414 10.7334 19.714C10.7334 19.9003 10.6594 20.0789 10.5276 20.2107C10.396 20.3423 10.2173 20.4164 10.0311 20.4164C9.93476 20.4157 9.83939 20.4347 9.75087 20.4727C9.66226 20.5106 9.58254 20.5663 9.51661 20.6365C9.45069 20.7066 9.39995 20.7896 9.36754 20.8804C9.33522 20.971 9.32198 21.0675 9.32874 21.1635C9.58272 24.7462 11.7197 39.8911 29.5955 39.8911C45.8836 39.8911 48.3866 27.0811 48.5622 21.3429C48.5681 21.1598 48.6451 20.9863 48.777 20.8594C48.9089 20.7323 49.0852 20.6619 49.2682 20.6629ZM15.1417 20.5733C15.3135 18.3916 15.2014 7.72582 29.5955 7.72582C44.2212 7.72582 44.1651 18.3916 44.1651 20.5733C44.1651 22.6952 43.2498 33.361 29.5955 33.361C14.6821 33.3573 15.3172 22.7475 15.1417 20.5733Z" fill="#7E7E7E"/>
<path d="M6.46668 11.5551V39.9472H0V11.5551H6.46668Z" fill="black"/>
<path d="M6.46668 0.399902V6.28007H0V0.399902H6.46668Z" fill="black"/>
<path d="M124.246 0.467146H91.6318V40.1676H124.246V34.0446L98.0948 34.1007V23.0389H120.106V17.5847H100.911C100.759 17.5847 100.612 17.6452 100.505 17.7532C100.397 17.861 100.336 18.0073 100.336 18.1599C100.337 18.2377 100.323 18.3149 100.295 18.3871C100.265 18.4592 100.222 18.5247 100.166 18.5795C100.111 18.6343 100.046 18.6773 99.9735 18.706C99.9013 18.7347 99.8235 18.7485 99.7457 18.7465H98.08V6.58267H124.231L124.246 0.467146Z" fill="black"/>
<path d="M159.191 0.467146H126.577V40.1676H159.191V34.0446L133.04 34.1007V23.0389H155.036V17.5847H135.857C135.705 17.5847 135.558 17.6452 135.45 17.7532C135.342 17.861 135.282 18.0073 135.282 18.1599C135.282 18.3125 135.221 18.4588 135.113 18.5668C135.005 18.6747 134.858 18.7353 134.707 18.7353H133.04V6.58267H159.191V0.467146Z" fill="black"/>
</svg>
