<svg width="20" height="19" viewBox="0 0 20 19" fill="none" xmlns="http://www.w3.org/2000/svg">
<path d="M4.53043 17.3609C2.47702 13.1849 1.25537 10.663 1.25537 10.6004C1.25537 10.4983 1.38083 10.5125 2.61457 10.7526C4.78439 11.1754 5.94368 11.2947 7.87616 11.2954C10.4329 11.2961 12.5149 10.8942 14.1326 10.0866C14.9883 9.65934 15.503 9.28058 15.9245 8.76749C16.4437 8.13512 16.6105 7.69962 16.6165 6.96658C16.6217 6.26938 16.527 5.90174 16.1206 5.04863C15.9597 4.71152 15.8185 4.32457 15.805 4.1888C15.7839 3.9703 15.802 3.93898 15.9643 3.92033C16.3189 3.87864 18.0695 5.56537 18.7142 6.56982C19.8254 8.30208 19.9156 10.176 18.9749 11.9881C18.3971 13.1015 17.7585 13.8718 16.6894 14.7473C14.9124 16.2014 12.847 17.214 9.99493 18.0298C8.463 18.4683 5.98582 19 5.47564 19C5.36751 19 5.16455 18.648 4.53193 17.3602L4.53043 17.3609V17.3609ZM5.10225 10.6265C3.10742 10.37 1.43352 10.1469 1.38167 10.1306C1.29304 10.1022 0.975976 9.05231 0.797126 8.19771C0.752059 7.98145 0.685899 7.40872 0.649872 6.92409C0.489013 4.76152 0.963125 3.26633 2.23364 1.92186C4.38468 -0.352512 8.99034 -0.629199 14.1866 1.20377C15.0987 1.52594 15.4608 1.74963 15.2933 1.88905C15.1694 1.99196 14.3294 1.99047 12.8778 1.88456C10.6088 1.71902 8.88146 2.03221 7.99115 2.77193C6.63568 3.89795 6.84236 6.36627 8.59071 9.92693C8.78007 10.3125 8.97093 10.6898 9.01449 10.7665C9.11597 10.9433 9.04232 11.1074 8.86573 11.0992C8.79052 11.0956 7.09694 10.8831 5.10221 10.6265L5.10225 10.6265ZM11.7943 8.6892C10.2022 8.40508 8.77094 7.42517 8.30888 6.30444C8.08722 5.76606 8.09772 5.06359 8.3344 4.64308C8.54853 4.26273 9.10147 3.82283 9.59664 3.63859C10.4209 3.33212 11.8642 3.45439 12.916 3.92051C13.9146 4.36274 14.7997 5.14047 15.1287 5.86379C15.551 6.79219 15.1993 7.828 14.2947 8.3224C13.6951 8.64975 12.5298 8.82053 11.7935 8.68924L11.7943 8.6892Z" fill="black"/>
</svg>
