<svg width="72" height="56" viewBox="0 0 72 56" fill="none" xmlns="http://www.w3.org/2000/svg">
<path d="M43.584 7.51164C43.584 11.6588 40.2523 15.0195 36.1398 15.0195C32.0332 15.0195 28.7003 11.6588 28.7003 7.51164C28.7003 3.3631 32.0332 0 36.1398 0C40.2523 0 43.584 3.3631 43.584 7.51164Z" fill="white"/>
<path d="M27.7579 55.4066C27.7968 54.928 27.3086 54.7805 26.0149 54.6615C16.0761 53.7496 9.19194 50.9329 9.19194 48.1297C9.19194 45.6833 14.6077 43.5511 22.5957 42.4478C22.8105 42.4145 23.2091 42.429 23.2457 42.1764C23.2775 41.9242 22.6052 41.3527 22.2066 41.1907C21.8056 41.03 21.1664 40.9181 20.7419 40.9621C8.39248 42.2491 -0.00945776 45.0596 7.98998e-06 48.3024C0.0117697 51.7951 10.0224 54.7295 23.9426 55.7568C25.0194 55.8385 27.7002 56.1138 27.7579 55.4066Z" fill="white"/>
<path d="M52.5427 41.6859C52.5216 41.681 52.4129 41.6783 52.308 41.7214C52.2102 41.7668 51.6924 42.3879 51.874 42.4287C52.0934 42.4726 52.2466 42.5047 52.3022 42.5165C57.9901 43.6951 61.3256 44.8997 61.3256 46.9018C61.3256 49.0566 57.1588 51.0484 50.6982 52.2279C50.6332 52.2371 50.4883 52.2612 50.473 52.1826C50.4635 52.0995 50.5991 52.0729 50.6545 52.052C53.6054 51.0078 55.3757 49.7245 55.3757 48.2831C55.3757 46.2153 52.6347 44.6833 46.0654 43.3951C43.2681 42.8509 39.8973 41.3882 39.7346 36.9383C39.7346 35.1622 39.8902 33.7432 40.757 32.2742C41.6263 30.8054 43.1783 28.1542 43.1783 25.2389C43.1783 20.4986 39.3334 17.5273 35.5854 17.5762C31.8373 17.6214 28.2943 20.4986 28.2943 25.2389C28.2943 28.2196 30.6802 31.3992 31.1695 32.3837C31.698 33.4325 32.192 34.7908 32.192 37.0419C32.192 40.663 27.4734 42.9259 25.2607 43.5011C21.1968 44.5571 16.5003 45.6214 16.5016 48.2829C16.5016 50.0374 17.938 51.2967 22.1663 52.3445C23.4494 52.6339 25.6631 53.0659 27.2965 53.2209C29.1741 53.3993 31.6875 53.5992 35.0334 53.2961C36.4852 53.164 37.2554 53.1623 37.3073 53.6815C37.3627 54.2565 36.3932 54.4853 36.0169 54.5638C34.3659 54.8947 32.3951 55.0245 32.4032 55.4254C32.4138 55.9696 33.6333 55.9968 35.2834 55.9995C49.7804 56.0494 71.1449 52.6652 71.1286 48.2618C71.1192 45.1808 63.932 42.9725 52.5427 41.6859Z" fill="white"/>
</svg>
