<svg width="125" height="56" viewBox="0 0 125 56" fill="none" xmlns="http://www.w3.org/2000/svg">
<path d="M10.407 46.8747C10.8304 47.2457 11.3594 47.6229 11.9867 47.997C12.614 48.3711 13.3164 48.713 14.0923 49.015C14.8653 49.314 15.7042 49.5593 16.6013 49.7494C17.4985 49.9379 18.4279 50.0314 19.391 50.0314C21.3662 50.0314 22.9014 49.6835 23.9934 48.9889C25.0837 48.2975 25.6328 47.3392 25.6328 46.1142C25.6328 45.3798 25.4487 44.7543 25.0853 44.2407C24.7172 43.7272 24.2112 43.2672 23.5655 42.8578C22.9198 42.4485 22.1607 42.079 21.2896 41.7432C20.417 41.4105 19.4723 41.064 18.4601 40.7037C16.4357 39.9709 14.761 39.2395 13.4298 38.5128C12.1002 37.7862 11.042 36.995 10.2599 36.1395C9.47621 35.2825 8.92563 34.3196 8.60816 33.251C8.28918 32.1839 8.12815 30.9467 8.12815 29.5439C8.12815 28.0582 8.42873 26.6906 9.03447 25.4442C9.63873 24.1978 10.4869 23.1169 11.5818 22.2138C12.6753 21.3077 13.9774 20.6024 15.4849 20.0966C16.9971 19.5922 18.6487 19.3377 20.4446 19.3377C22.1929 19.3377 23.725 19.5078 25.0469 19.8497C26.3674 20.1916 27.513 20.5963 28.4746 21.067C29.4362 21.5392 30.2321 22.0222 30.8609 22.5189C31.4912 23.0141 31.9911 23.4143 32.3653 23.724L29.2827 28.443C29.0037 28.1655 28.5834 27.8466 28.0206 27.4879C27.4578 27.1291 26.7998 26.7857 26.0499 26.4622C25.2985 26.1357 24.4902 25.8613 23.6268 25.6405C22.7603 25.4182 21.903 25.3108 21.0534 25.3108C20.1747 25.3108 19.3987 25.409 18.7285 25.6052C18.0568 25.803 17.5 26.0652 17.0507 26.4008C16.6013 26.7351 16.2625 27.1322 16.0355 27.5891C15.8054 28.0459 15.6904 28.535 15.6904 29.0578C15.6904 29.6957 15.833 30.243 16.1198 30.6984C16.4035 31.1568 16.8375 31.5723 17.4172 31.9494C17.9939 32.3234 18.7331 32.6899 19.6317 33.0502C20.5289 33.4105 21.5917 33.8106 22.8156 34.2522C24.6421 34.9038 26.2094 35.5845 27.516 36.2959C28.8212 37.0073 29.8962 37.8168 30.7351 38.7228C31.577 39.629 32.1966 40.6577 32.5969 41.8076C32.9972 42.959 33.195 44.2943 33.195 45.8137C33.195 47.1859 32.896 48.4891 32.2917 49.7187C31.6874 50.9529 30.8225 52.0338 29.6969 52.9644C28.5696 53.892 27.1986 54.6325 25.5837 55.1798C23.9658 55.7271 22.1454 56 20.1225 56C18.5368 56 17.0722 55.8589 15.7272 55.5723C14.3791 55.2872 13.1676 54.9284 12.091 54.4945C11.0128 54.0637 10.0712 53.5899 9.26607 53.0748C8.45481 52.5627 7.79076 52.0751 7.26932 51.6198L10.407 46.8747Z" fill="white"/>
<path d="M59.2035 40.0444H46.4714V49.5194H61.7493V55.4911H38.8555V19.8513H61.5055V25.8245H46.4714V34.0728H59.2035V40.0444Z" fill="white"/>
<path d="M84.301 48.2438H73.9936L72.0337 55.4911H64.3457L75.1178 19.8528H83.1999L93.9736 55.4911H86.284L84.301 48.2438ZM75.6085 42.2706H82.6847L79.208 29.1039H79.0607L75.6085 42.2706Z" fill="white"/>
<path d="M98.3781 55.4895V19.8513H109.714C112.145 19.8513 114.293 20.2652 116.154 21.0886C118.014 21.9134 119.574 23.0632 120.83 24.5397C122.086 26.0176 123.034 27.7793 123.671 29.826C124.305 31.8743 124.626 34.1127 124.626 36.5443V38.8211C124.626 41.3661 124.287 43.6658 123.609 45.7233C122.933 47.7747 121.953 49.5271 120.669 50.9728C119.391 52.4155 117.826 53.5301 115.982 54.3121C114.139 55.097 112.048 55.4895 109.714 55.4895H98.3781ZM105.994 49.5194H108.718C109.829 49.5194 110.806 49.3845 111.65 49.1269C112.493 48.8632 113.22 48.5014 113.834 48.0246C114.447 47.5508 114.96 46.9851 115.368 46.3273C115.777 45.6665 116.102 44.9414 116.349 44.1488C116.594 43.3577 116.766 42.5113 116.863 41.6068C116.962 40.7006 117.011 39.7669 117.011 38.8057V36.483C117.011 34.9191 116.881 33.4857 116.62 32.1794C116.357 30.8747 115.907 29.7554 115.269 28.8171C114.63 27.8819 113.782 27.1476 112.716 26.614C111.655 26.0866 110.321 25.8214 108.718 25.8214H105.994V49.5194Z" fill="white"/>
<path d="M41.5394 6.9851C36.0199 2.65853 28.6662 0.0122944 20.5841 2.91281e-05C12.5066 -0.0107031 5.53173 2.94522 0 7.25647L1.94309 8.92148C6.91965 4.90767 13.6369 2.45308 21.0258 2.46228C28.1862 2.47455 34.7117 4.80341 39.6269 8.61638L41.5394 6.9851Z" fill="white"/>
<path d="M7.26163 13.4766C10.858 10.6786 15.6443 8.97677 20.8955 8.98597C25.9825 8.99363 30.6262 10.6035 34.1734 13.2573L36.1395 11.5816C32.0034 8.4325 26.5514 6.51298 20.5765 6.50378C14.5984 6.49458 9.14034 8.3957 4.99649 11.5356" fill="white"/>
<path d="M12.3549 17.8397C14.623 16.2116 17.5507 15.2365 20.7467 15.2426C23.8477 15.2457 26.6925 16.1748 28.927 17.7232L30.9729 15.9831C28.2108 13.9946 24.6436 12.7911 20.7513 12.7849C16.7593 12.7803 13.1124 14.0268 10.3182 16.0951L12.3549 17.8397Z" fill="white"/>
</svg>
