<svg width="40" height="41" viewBox="0 0 40 41" fill="none" xmlns="http://www.w3.org/2000/svg">
<path d="M20.9524 33.0667C20.9524 32.4953 20.9524 31.7334 21.1429 31.162H11.4286V27.3525H7.61905V12.1144H11.4286V8.30484H26.6667V12.1144H30.4762V21.8286C31.0476 21.6382 31.8095 21.6382 32.381 21.6382C32.9524 21.6382 33.7143 21.6382 34.2857 21.8286V12.1144H38.0952V0.685791H26.6667V4.49531H11.4286V0.685791H0V12.1144H3.80952V27.3525H0V38.781H11.4286V34.9715H21.1429C20.9524 34.4001 20.9524 33.6382 20.9524 33.0667ZM30.4762 4.49531H34.2857V8.30484H30.4762V4.49531ZM3.80952 4.49531H7.61905V8.30484H3.80952V4.49531ZM7.61905 34.9715H3.80952V31.162H7.61905V34.9715ZM34.2857 25.4477V31.162H40V34.9715H34.2857V40.6858H30.4762V34.9715H24.7619V31.162H30.4762V25.4477H34.2857Z" fill="black"/>
</svg>
