<svg width="95" height="56" viewBox="0 0 95 56" fill="none" xmlns="http://www.w3.org/2000/svg">
<g opacity="0.72">
<path d="M41.434 53.5389C44.7154 56.8203 50.0356 56.8203 53.3171 53.5389L64.0464 42.8096L52.1633 30.9266L48.8389 34.2511C48.0307 35.0593 46.7204 35.0593 45.9122 34.2511L42.5877 30.9266L30.7047 42.8096L41.434 53.5389Z" fill="white"/>
<path d="M94.1158 12.7402L82.2328 0.857178L69.8997 13.1903L81.7827 25.0733L94.1158 12.7402Z" fill="white"/>
<path d="M12.5183 0.857181L0.635254 12.7402L12.9684 25.0733L24.8514 13.1903L12.5183 0.857181Z" fill="white"/>
</g>
<path d="M12.5183 55.1428L0.635255 43.2598L12.9684 30.9267L14.4317 29.4633L15.8951 28L27.7781 16.117L29.2414 14.6537L30.7047 13.1903L41.434 2.46105C44.7154 -0.820348 50.0357 -0.820349 53.3171 2.46105L64.0464 13.1903L65.5097 14.6537L66.973 16.117L78.856 28L80.3194 29.4633L81.7827 30.9266L94.1158 43.2598L82.2328 55.1428L69.8997 42.8097L68.4363 41.3463L66.973 39.883L55.09 28L53.6267 26.5367L52.1633 25.0734L48.8389 21.7489C48.0307 20.9407 46.7204 20.9407 45.9122 21.7489L42.5877 25.0733L41.1244 26.5367L39.6611 28L27.7781 39.883L26.3148 41.3463L24.8514 42.8097L12.5183 55.1428Z" fill="white"/>
</svg>
