<svg width="57" height="20" viewBox="0 0 57 20" fill="none" xmlns="http://www.w3.org/2000/svg">
<path d="M0 19.7101V0.27668H3.42556V19.7101H0Z" fill="#202020"/>
<path d="M6.84433 19.7101V0.27668H12.6546C13.9458 0.27668 15.1184 0.509443 16.1724 0.974967C17.2264 1.43171 18.1311 2.08608 18.8865 2.93808C19.6419 3.79008 20.226 4.81335 20.6388 6.00791C21.0516 7.19368 21.258 8.51559 21.258 9.97365C21.258 11.4317 21.0516 12.758 20.6388 13.9526C20.226 15.1383 19.6419 16.1616 18.8865 17.0224C18.1311 17.8832 17.2264 18.5463 16.1724 19.0119C15.1184 19.4774 13.9458 19.7101 12.6546 19.7101H6.84433ZM10.3226 18.6693L8.75473 16.9433H12.2066C13.2607 16.9433 14.2005 16.6623 15.0261 16.1001C15.8606 15.5292 16.5193 14.7255 17.0024 13.6891C17.4855 12.6438 17.7271 11.4054 17.7271 9.97365C17.7271 8.53316 17.4855 7.29469 17.0024 6.25823C16.5193 5.22178 15.8606 4.42688 15.0261 3.87352C14.2005 3.32016 13.2607 3.04348 12.2066 3.04348H8.75473L10.3226 1.31752V18.6693Z" fill="#202020"/>
<path d="M30.4484 20C29.0694 20 27.866 19.7804 26.8384 19.3412C25.8107 18.9021 25.0114 18.2433 24.4405 17.365C23.8695 16.4778 23.5841 15.3799 23.5841 14.0711C23.5841 13.9218 23.5841 13.7901 23.5841 13.6759C23.5841 13.5529 23.5841 13.4168 23.5841 13.2675H27.0492C27.0492 13.3992 27.0492 13.5222 27.0492 13.6364C27.0492 13.7418 27.0492 13.8647 27.0492 14.0053C27.0492 15.0593 27.3346 15.8498 27.9056 16.3768C28.4853 16.895 29.3373 17.1542 30.4615 17.1542C31.5946 17.1542 32.4598 16.9653 33.0571 16.5876C33.6631 16.2099 33.9662 15.6039 33.9662 14.7694C33.9662 14.1634 33.7597 13.6495 33.3469 13.2279C32.9429 12.7975 32.3851 12.4199 31.6737 12.0949C30.9622 11.7699 30.1541 11.4668 29.2494 11.1858C28.2305 10.8696 27.3039 10.4611 26.4695 9.96047C25.635 9.45982 24.9675 8.8274 24.4668 8.06324C23.9662 7.29908 23.7158 6.35924 23.7158 5.24374C23.7158 4.12824 24.0013 3.17962 24.5722 2.39789C25.1519 1.61616 25.9424 1.02328 26.9438 0.619235C27.9539 0.206412 29.1001 0 30.3825 0C31.7264 0 32.9077 0.210804 33.9266 0.632411C34.9543 1.05402 35.758 1.68204 36.3377 2.51647C36.9174 3.3509 37.2073 4.39174 37.2073 5.639C37.2073 5.80589 37.2073 5.95081 37.2073 6.07378C37.2073 6.19675 37.2073 6.33729 37.2073 6.49539H33.729C33.729 6.3812 33.729 6.26702 33.729 6.15283C33.729 6.02986 33.729 5.91129 33.729 5.7971C33.729 4.79578 33.4567 4.05797 32.9121 3.58366C32.3676 3.10057 31.5419 2.85903 30.4352 2.85903C29.3548 2.85903 28.5248 3.04787 27.9451 3.42556C27.3654 3.80325 27.0755 4.40492 27.0755 5.23057C27.0755 5.84541 27.2731 6.35925 27.6684 6.77207C28.0637 7.18489 28.6038 7.54502 29.2889 7.85244C29.9828 8.15108 30.769 8.45411 31.6473 8.76153C32.8155 9.148 33.8256 9.58718 34.6776 10.0791C35.5296 10.5621 36.1884 11.1682 36.6539 11.8972C37.1194 12.6175 37.3522 13.5354 37.3522 14.6509C37.3522 15.7927 37.0623 16.7633 36.4826 17.5626C35.9117 18.3531 35.108 18.9592 34.0716 19.3808C33.0439 19.7936 31.8362 20 30.4484 20Z" fill="#202020"/>
<path d="M48.0987 20C46.9217 20 45.8237 19.7804 44.8048 19.3412C43.786 18.9021 42.89 18.2565 42.1171 17.4045C41.3529 16.5437 40.7557 15.4941 40.3253 14.2556C39.9037 13.0083 39.6929 11.581 39.6929 9.97365C39.6929 8.36627 39.9037 6.94335 40.3253 5.70487C40.7557 4.4664 41.3529 3.42556 42.1171 2.58235C42.8813 1.73035 43.7728 1.08915 44.7917 0.658761C45.8193 0.219587 46.9217 0 48.0987 0C49.2932 0 50.3999 0.219587 51.4188 0.658761C52.4465 1.08915 53.3424 1.73035 54.1066 2.58235C54.8707 3.42556 55.4636 4.4664 55.8852 5.70487C56.3156 6.94335 56.5308 8.36627 56.5308 9.97365C56.5308 11.581 56.3156 13.0083 55.8852 14.2556C55.4548 15.4941 54.8532 16.5437 54.0802 17.4045C53.316 18.2565 52.4245 18.9021 51.4056 19.3412C50.3867 19.7804 49.2844 20 48.0987 20ZM48.0987 17.141C49.0121 17.141 49.8378 16.895 50.5756 16.4032C51.3134 15.9025 51.8975 15.1252 52.3279 14.0711C52.7671 13.0171 52.9867 11.6513 52.9867 9.97365C52.9867 8.28722 52.7671 6.92578 52.3279 5.88933C51.8887 4.84409 51.3002 4.07993 50.5624 3.59684C49.8246 3.11375 49.0033 2.8722 48.0987 2.8722C47.2115 2.8722 46.3947 3.11375 45.6481 3.59684C44.9102 4.07993 44.3174 4.84409 43.8694 5.88933C43.4302 6.92578 43.2106 8.28722 43.2106 9.97365C43.2106 11.6601 43.4302 13.0303 43.8694 14.0843C44.3174 15.1383 44.9102 15.9113 45.6481 16.4032C46.3947 16.895 47.2115 17.141 48.0987 17.141Z" fill="#202020"/>
</svg>
